<?xml version="1.0" encoding="utf-8"?><!-- Uploaded to: SVG Repo, www.svgrepo.com, Generator: SVG Repo Mixer Tools -->
<svg viewBox="0 0 24 24" fill="none" xmlns="http://www.w3.org/2000/svg">
<path d="M20 1C21.6569 1 23 2.34315 23 4V8C23 8.55228 22.5523 9 22 9C21.4477 9 21 8.55228 21 8V4C21 3.44772 20.5523 3 20 3H16C15.4477 3 15 2.55228 15 2C15 1.44772 15.4477 1 16 1H20Z" fill="#0F0F0F"/>
<path d="M22 15C22.5523 15 23 15.4477 23 16V20C23 21.6569 21.6569 23 20 23H16C15.4477 23 15 22.5523 15 22C15 21.4477 15.4477 21 16 21H20C20.5523 21 21 20.5523 21 20V16C21 15.4477 21.4477 15 22 15Z" fill="#0F0F0F"/>
<path d="M4 21H8C8.55228 21 9 21.4477 9 22C9 22.5523 8.55228 23 8 23H4C2.34315 23 1 21.6569 1 20V16C1 15.4477 1.44772 15 2 15C2.55228 15 3 15.4477 3 16V20C3 20.5523 3.44772 21 4 21Z" fill="#0F0F0F"/>
<path d="M2 9C1.44772 9 1 8.55228 1 8V4C1 2.34315 2.34315 1 4 1H8C8.55228 1 9 1.44772 9 2C9 2.55228 8.55228 3 8 3H4C3.44772 3 3 3.44772 3 4V8C3 8.55228 2.55228 9 2 9Z" fill="#0F0F0F"/>
<path fill-rule="evenodd" clip-rule="evenodd" d="M12 16C14.2091 16 16 14.2091 16 12C16 9.79086 14.2091 8 12 8C9.79086 8 8 9.79086 8 12C8 14.2091 9.79086 16 12 16ZM12 14.0137C10.8879 14.0137 9.98632 13.1121 9.98632 12C9.98632 10.8879 10.8879 9.98632 12 9.98632C13.1121 9.98632 14.0137 10.8879 14.0137 12C14.0137 13.1121 13.1121 14.0137 12 14.0137Z" fill="#0F0F0F"/>
</svg>