<?xml version="1.0" encoding="utf-8"?>
<!-- Generator: Adobe Illustrator 24.1.2, SVG Export Plug-In . SVG Version: 6.00 Build 0)  -->
<svg version="1.1" id="Layer_1" xmlns="http://www.w3.org/2000/svg" xmlns:xlink="http://www.w3.org/1999/xlink" x="0px" y="0px"
	 viewBox="0 0 721.5 721.5" style="enable-background:new 0 0 721.5 721.5;" xml:space="preserve">
<style type="text/css">
	.st0{fill:#0F0F0F;}
	.st1{fill-rule:evenodd;clip-rule:evenodd;}
</style>
<path class="st0" d="M98.4,721.5C44,721.5,0,677.4,0,623.1V491.9c0-18.1,14.7-32.8,32.8-32.8s32.8,14.7,32.8,32.8v131.2
	c0,18.1,14.7,32.8,32.8,32.8h131.2c18.1,0,32.8,14.7,32.8,32.8s-14.7,32.8-32.8,32.8H98.4z"/>
<path class="st0" d="M32.8,262.4C14.7,262.4,0,247.7,0,229.6V98.4C0,44,44,0,98.4,0h131.2c18.1,0,32.8,14.7,32.8,32.8
	s-14.7,32.8-32.8,32.8H98.4c-18.1,0-32.8,14.7-32.8,32.8v131.2C65.6,247.7,50.9,262.4,32.8,262.4z"/>
<path class="st0" d="M623.1,65.6H491.9c-18.1,0-32.8-14.7-32.8-32.8S473.8,0,491.9,0h131.2c54.3,0,98.4,44,98.4,98.4v131.2
	c0,18.1-14.7,32.8-32.8,32.8s-32.8-14.7-32.8-32.8V98.4C655.9,80.3,641.2,65.6,623.1,65.6z"/>
<path class="st0" d="M688.7,459.1c18.1,0,32.8,14.7,32.8,32.8v131.2c0,54.3-44,98.4-98.4,98.4H491.9c-18.1,0-32.8-14.7-32.8-32.8
	s14.7-32.8,32.8-32.8h131.2c18.1,0,32.8-14.7,32.8-32.8V491.9C655.9,473.8,670.6,459.1,688.7,459.1z"/>
<path class="st1" d="M229.9,265.4c0-22.1,17.9-39.9,39.9-39.9h186.8c22.1,0,39.9,17.9,39.9,39.9v186.8c0,22.1-17.9,39.9-39.9,39.9
	H269.8c-22.1,0-39.9-17.9-39.9-39.9V265.4z M256.5,265.4v186.8c0,7.3,5.9,13.3,13.3,13.3h186.8c7.3,0,13.3-5.9,13.3-13.3V265.4
	c0-7.3-5.9-13.3-13.3-13.3H269.8C262.5,252.2,256.5,258.1,256.5,265.4z M323.2,372.2l40,26.7l26.7-53.3l53.3,93.3h-160L323.2,372.2z
	 M316.5,332.2c11,0,20-9,20-20c0-11-9-20-20-20c-11,0-20,9-20,20C296.5,323.2,305.5,332.2,316.5,332.2z"/>
</svg>
