<?xml version="1.0" encoding="utf-8"?>
<!-- Generator: Adobe Illustrator 24.1.2, SVG Export Plug-In . SVG Version: 6.00 Build 0)  -->
<svg version="1.1" id="Layer_1" xmlns="http://www.w3.org/2000/svg" xmlns:xlink="http://www.w3.org/1999/xlink" x="0px" y="0px"
	 viewBox="0 0 224 224" style="enable-background:new 0 0 224 224;" xml:space="preserve">
<g transform="translate(0.000000,256.000000) scale(0.100000,-0.100000)">
	<path d="M1097.9,2525.3c-16-9-18-26-18-130c0-118,0-120,25-131c21-9,28-8,45,7c18,16,20,31,20,126c0,100-2,109-22,123
		C1121.9,2539.3,1120.9,2539.3,1097.9,2525.3z"/>
	<path d="M381.9,2284.3c-26-26-11-54,66-131c42-42,85-77,94-77c16,0,48,35,48,53c0,5-35,45-77,88
		C436.9,2296.3,407.9,2310.3,381.9,2284.3z"/>
	<path d="M1736.9,2218.3c-81-81-94-112-57-132c32-17,51-6,129,74c70,73,83,100,59,124C1841.9,2310.3,1813.9,2295.3,1736.9,2218.3z"
		/>
	<path d="M1054.9,2079.3c-224-27-416-181-497-399c-19-49-23-80-23-179c0-114,2-123,32-187c41-86,79-141,160-231
		c87-97,103-132,103-234c0-72,3-85,24-110l24-28h242h242l24,28c21,25,24,38,24,108c0,100,14,134,89,219c92,103,131,160,170,240
		c35,73,36,78,36,195c0,133-15,189-77,293C1512.9,1986.3,1272.9,2106.3,1054.9,2079.3z M1260.9,1970.3c208-61,358-259,359-472
		c0-115-47-208-188-371c-92-106-112-151-112-253v-68h-200h-200v68c0,102-20,147-112,253c-141,163-188,256-188,371
		c1,209,137,395,340,465C1040.9,1991.3,1178.9,1994.3,1260.9,1970.3z"/>
	<path d="M1152.9,1889.3c-7-2-13-18-13-33c0-32,23-50,61-50c73,0,172-67,210-141c10-21,22-60,26-86c7-57,18-73,48-73
		c37,0,48,24,42,86c-12,119-108,240-222,283C1252.9,1895.3,1181.9,1901.3,1152.9,1889.3z"/>
	<path d="M79.9,1566.3c-15-28-4-59,23-65c12-3,66-5,121-3c86,3,100,6,112,23c12,18,11,24-2,43c-14,20-23,22-129,22
		C99.9,1586.3,89.9,1584.3,79.9,1566.3z"/>
	<path d="M1911.9,1574.3c-7-7-12-21-12-33c0-39,18-45,135-45c117,0,135,6,135,45s-18,45-135,45
		C1961.9,1586.3,1919.9,1582.3,1911.9,1574.3z"/>
	<path d="M446.9,928.3c-45-45-77-86-77-98c0-25,18-44,43-44c19,0,150,119,169,153c12,23-14,67-40,67
		C531.9,1006.3,489.9,971.3,446.9,928.3z"/>
	<path d="M1677.9,995.3c-35-20-20-52,60-132c81-81,112-94,132-57c17,32,6,51-74,129C1720.9,1007.3,1708.9,1013.3,1677.9,995.3z"/>
	<path d="M841.9,664.3c-17-17-15-42,6-61c16-15,50-17,274-17c234,0,256,1,271,18c20,22,22,43,5,60S858.9,681.3,841.9,664.3z"/>
	<path d="M899.9,537.3c-14-27-13-37,6-55c13-14,47-16,213-16c185,0,199,1,216,20c15,17,16,24,7,45l-12,25h-209
		C922.9,556.3,909.9,555.3,899.9,537.3z"/>
	<path d="M1026.9,418.3c-21-23-21-36-1-56c24-24,165-22,187,2s21,35-1,55C1183.9,444.3,1048.9,443.3,1026.9,418.3z"/>
</g>
</svg>
