<?xml version="1.0" encoding="utf-8"?>
<!-- Generator: Adobe Illustrator 24.1.2, SVG Export Plug-In . SVG Version: 6.00 Build 0)  -->
<svg version="1.1" id="Layer_1" xmlns="http://www.w3.org/2000/svg" xmlns:xlink="http://www.w3.org/1999/xlink" x="0px" y="0px"
	 viewBox="0 0 391.2 391.2" style="enable-background:new 0 0 391.2 391.2;" xml:space="preserve">
<g transform="translate(0.000000,512.000000) scale(0.100000,-0.100000)">
	<path d="M3319.9,4754.8l132-133l-562-530c-310-292-591-557-626-589l-63-58l-308,307l-307,307l-787-591c-433-324-787-592-787-593
		c0-2,37-53,83-114l83-111l689,518l690,518l320-318l320-318l645,609c355,336,682,644,728,686l83,77l125-125l124-124v358v357h-357
		h-358L3319.9,4754.8z"/>
	<path d="M3311.9,2752.8v-1225h140h140l-2,1223l-3,1222l-137,3l-138,3V2752.8z"/>
	<path d="M1521.9,2422.8v-895h140h140v895v895h-140h-140V2422.8z"/>
	<path d="M2771.9,2392.8v-865h140h140v865v865h-140h-140V2392.8z"/>
	<path d="M891.9,2257.8v-730h140h140v730v730h-140h-140V2257.8z"/>
	<path d="M2141.9,2167.8v-640h145h145v640v640h-145h-145V2167.8z"/>
	<path d="M271.9,2082.8v-555h140h140v555v555h-140h-140V2082.8z"/>
</g>
</svg>
