<?xml version="1.0" encoding="utf-8"?>
<!-- Generator: Adobe Illustrator 24.1.2, SVG Export Plug-In . SVG Version: 6.00 Build 0)  -->
<svg version="1.1" id="Layer_1" xmlns="http://www.w3.org/2000/svg" xmlns:xlink="http://www.w3.org/1999/xlink" x="0px" y="0px"
	 viewBox="0 0 372.5 372.5" style="enable-background:new 0 0 372.5 372.5;" xml:space="preserve">
<g id="XMLID_10_">
	<g>
		<path d="M372.5,263c0-21.8-6.5-42.8-18.9-60.9c-8.9-13-20.3-23.7-33.6-31.7c15.6-14.8,25.4-35.7,25.4-58.8c0-44.7-36.4-81-81-81
			c-26.5,0-51.3,13.1-66.4,34.6c-3.8-0.6-7.7-0.9-11.7-0.9s-7.9,0.3-11.7,0.9c-15.1-21.5-39.9-34.6-66.4-34.6c-44.7,0-81,36.4-81,81
			c0,23.1,9.8,44,25.4,58.8c-13.3,8-24.7,18.8-33.6,31.7C6.5,220.2,0,241.2,0,263v45.1h78.1v33.8h216.2v-33.8h78.1L372.5,263
			L372.5,263L372.5,263z M264.4,50.6c33.7,0,61,27.4,61,61s-27.4,61-61,61c-0.6,0-1.2,0-1.8,0c0-0.1,0.1-0.3,0.1-0.4
			c1-3,1.9-6,2.6-9.1c0-0.2,0.1-0.4,0.2-0.7c0.2-0.8,0.3-1.7,0.5-2.5c0.1-0.4,0.1-0.8,0.2-1.2c0.1-0.8,0.2-1.5,0.3-2.3
			c0.1-0.5,0.1-1.1,0.2-1.6c0.1-0.7,0.2-1.3,0.2-2c0.1-0.7,0.1-1.4,0.2-2.1c0-0.5,0.1-1.1,0.1-1.6c0.1-1.2,0.1-2.4,0.1-3.5
			c0-0.1,0-0.2,0-0.3c0,0,0-0.1,0-0.1c0-1.2,0-2.4-0.1-3.6c0-0.3,0-0.7-0.1-1c-0.1-1-0.1-2-0.2-3c0-0.2,0-0.5-0.1-0.7
			c-3-29.2-21.5-54.2-48.1-65.8C230.2,58.3,246.8,50.6,264.4,50.6z M165.1,88.1c0.2-0.1,0.4-0.1,0.6-0.2c0.6-0.2,1.2-0.4,1.8-0.6
			c0.5-0.1,0.9-0.3,1.4-0.4c0.3-0.1,0.7-0.2,1-0.3c0.6-0.2,1.2-0.3,1.9-0.5c4.6-1.1,9.4-1.7,14.4-1.7c5,0,9.8,0.6,14.4,1.7
			c0.6,0.2,1.2,0.3,1.8,0.5c0.4,0.1,0.7,0.2,1,0.3c0.5,0.1,0.9,0.3,1.4,0.4c0.6,0.2,1.2,0.4,1.9,0.6c0.2,0.1,0.4,0.1,0.6,0.2
			c20.4,7.5,35.7,25.7,39.2,47.8c0,0.2,0.1,0.4,0.1,0.5c0.1,0.7,0.2,1.5,0.3,2.3c0,0.3,0.1,0.6,0.1,0.8c0.1,0.7,0.1,1.4,0.2,2.1
			c0,0.3,0,0.6,0.1,0.9c0,0.9,0.1,1.8,0.1,2.7c0,0.1,0,0.2,0,0.2c0,0,0,0.1,0,0.1c0,0.9,0,1.7-0.1,2.6c0,0.3,0,0.5,0,0.8
			c0,0.8-0.1,1.7-0.2,2.5c0,0.3-0.1,0.6-0.1,1c-0.1,0.5-0.1,1.1-0.2,1.6c-0.1,0.4-0.1,0.8-0.2,1.2c-0.1,0.6-0.2,1.2-0.3,1.9
			c-0.1,0.5-0.2,1.1-0.3,1.6c-0.1,0.3-0.1,0.7-0.2,1c-0.2,0.8-0.4,1.6-0.6,2.4c-0.1,0.3-0.2,0.6-0.3,1c-0.1,0.5-0.3,0.9-0.4,1.4
			c-0.1,0.4-0.2,0.7-0.4,1.1c-0.1,0.4-0.3,0.8-0.4,1.2c-0.3,0.7-0.5,1.4-0.8,2.1c-0.1,0.3-0.3,0.6-0.4,0.9c-0.2,0.6-0.5,1.1-0.8,1.7
			c0,0.1-0.1,0.1-0.1,0.2c-0.1,0.2-0.2,0.4-0.3,0.6c-0.3,0.6-0.6,1.2-0.9,1.8c-0.1,0.2-0.2,0.5-0.4,0.7c0,0,0,0,0,0
			c-0.3,0.6-0.7,1.3-1.1,1.9c-0.1,0.2-0.3,0.5-0.4,0.7c-0.4,0.6-0.8,1.3-1.2,1.9c-0.3,0.4-0.5,0.8-0.8,1.2c-0.2,0.3-0.5,0.7-0.7,1
			c-0.3,0.4-0.6,0.8-0.9,1.2c-0.2,0.3-0.4,0.6-0.7,0.8c-0.3,0.4-0.7,0.8-1,1.2c-0.2,0.3-0.4,0.5-0.7,0.8c-0.4,0.4-0.7,0.8-1.1,1.2
			c-0.2,0.2-0.4,0.5-0.7,0.7c-0.6,0.6-1.2,1.3-1.8,1.9c-0.4,0.4-0.7,0.7-1.1,1.1c-0.3,0.2-0.5,0.5-0.8,0.7c-0.4,0.4-0.9,0.8-1.3,1.1
			c-0.2,0.2-0.5,0.4-0.7,0.6c-0.5,0.4-1.1,0.9-1.7,1.3c-0.2,0.1-0.3,0.2-0.5,0.3c-10.2,7.6-22.7,12-36.3,12
			c-13.6,0-26.2-4.5-36.3-12c-0.1-0.1-0.3-0.2-0.4-0.3c-0.6-0.4-1.1-0.9-1.7-1.3c-0.2-0.2-0.5-0.4-0.7-0.6c-0.5-0.4-0.9-0.8-1.3-1.2
			c-0.3-0.2-0.5-0.5-0.8-0.7c-0.4-0.4-0.8-0.7-1.1-1.1c-0.6-0.6-1.2-1.2-1.9-1.9c-0.2-0.2-0.4-0.5-0.7-0.7c-0.4-0.4-0.7-0.8-1.1-1.2
			c-0.2-0.3-0.4-0.5-0.7-0.8c-0.3-0.4-0.7-0.8-1-1.2c-0.2-0.3-0.4-0.6-0.7-0.8c-0.3-0.4-0.6-0.8-0.9-1.2c-0.2-0.3-0.5-0.7-0.7-1
			c-0.3-0.4-0.5-0.8-0.8-1.2c-0.4-0.6-0.8-1.3-1.2-1.9c-0.1-0.2-0.3-0.5-0.4-0.7c-0.4-0.6-0.7-1.3-1.1-1.9c-0.1-0.2-0.3-0.5-0.4-0.7
			c-0.3-0.6-0.6-1.2-0.9-1.8c-0.1-0.2-0.2-0.4-0.3-0.6c0,0,0-0.1,0-0.1c-0.3-0.6-0.5-1.2-0.8-1.8c-0.1-0.3-0.2-0.6-0.4-0.8
			c-0.3-0.7-0.6-1.4-0.8-2.1c-0.1-0.4-0.3-0.8-0.4-1.2c-0.1-0.4-0.3-0.8-0.4-1.2c-0.1-0.4-0.3-0.9-0.4-1.3c-0.2-0.6-0.4-1.3-0.6-2
			c-0.1-0.5-0.2-0.9-0.3-1.4c-0.1-0.4-0.2-0.7-0.3-1.1c-0.1-0.4-0.2-0.9-0.3-1.4c-0.1-0.7-0.3-1.4-0.4-2.1c-0.1-0.4-0.1-0.8-0.2-1.2
			c-0.1-0.6-0.2-1.1-0.2-1.7c0-0.3-0.1-0.6-0.1-0.8c-0.1-0.8-0.1-1.7-0.2-2.5c0-0.2,0-0.5,0-0.7c0-0.9-0.1-1.8-0.1-2.7
			c0-1,0-2,0.1-2.9c0-0.3,0-0.5,0.1-0.8c0-0.7,0.1-1.5,0.2-2.2c0-0.3,0.1-0.5,0.1-0.8c0.1-0.8,0.2-1.6,0.3-2.3c0-0.2,0-0.3,0.1-0.5
			C129.4,113.9,144.7,95.7,165.1,88.1z M47.1,111.6c0-33.7,27.4-61,61-61c17.6,0,34.2,7.6,45.6,20.5c-26.6,11.6-45.1,36.6-48.1,65.8
			c0,0.2,0,0.4-0.1,0.6c-0.1,1-0.2,2.1-0.2,3.1c0,0.3,0,0.6-0.1,1c-0.1,1.3-0.1,2.5-0.1,3.8c0,1.3,0,2.5,0.1,3.8
			c0,0.5,0.1,1,0.1,1.5c0,0.7,0.1,1.5,0.2,2.2c0.1,0.6,0.1,1.3,0.2,1.9c0.1,0.6,0.1,1.1,0.2,1.7c0.1,0.7,0.2,1.5,0.3,2.2
			c0.1,0.4,0.2,0.9,0.2,1.3c0.2,0.8,0.3,1.6,0.5,2.4c0.1,0.3,0.1,0.5,0.2,0.8c0.7,3,1.5,5.9,2.5,8.8c0.1,0.2,0.1,0.4,0.2,0.6
			c-0.6,0-1.2,0-1.8,0C74.5,172.7,47.1,145.3,47.1,111.6z M94.9,239.1c-0.2,0.3-0.4,0.7-0.6,1c-0.5,0.7-0.9,1.5-1.3,2.2
			c-0.2,0.4-0.5,0.8-0.7,1.3c-0.4,0.7-0.8,1.4-1.2,2.1c-0.2,0.4-0.5,0.9-0.7,1.3c-0.4,0.7-0.7,1.4-1.1,2.1c-0.2,0.4-0.4,0.9-0.6,1.3
			c-0.4,0.7-0.7,1.5-1,2.2c-0.2,0.4-0.4,0.8-0.5,1.2c-0.4,0.9-0.8,1.8-1.1,2.7c-0.1,0.3-0.2,0.5-0.3,0.8c-0.5,1.2-0.9,2.4-1.3,3.6
			c-0.1,0.3-0.2,0.5-0.3,0.8c-0.3,0.9-0.6,1.8-0.9,2.8c-0.1,0.4-0.3,0.9-0.4,1.3c-0.2,0.8-0.5,1.6-0.7,2.4c-0.1,0.5-0.3,0.9-0.4,1.4
			c-0.2,0.8-0.4,1.5-0.6,2.3c-0.1,0.5-0.2,1-0.3,1.5c-0.2,0.8-0.3,1.5-0.5,2.3c-0.1,0.5-0.2,0.9-0.3,1.4c-0.2,0.8-0.3,1.7-0.4,2.5
			c-0.1,0.4-0.1,0.8-0.2,1.2c-0.2,1.3-0.4,2.5-0.5,3.8c0,0,0,0,0,0c-0.1,1.1-0.2,2.3-0.3,3.4H20V263c0-34.3,19.7-65,50.5-79.6
			c11.2,5.9,24,9.3,37.6,9.3c3.9,0,7.9-0.3,11.8-0.9c0.6,0.9,1.2,1.7,1.9,2.6c0.2,0.3,0.4,0.6,0.7,0.8c0.6,0.8,1.3,1.6,1.9,2.4
			c0.3,0.3,0.5,0.6,0.8,1c0.6,0.7,1.3,1.4,1.9,2.1c0.3,0.4,0.7,0.7,1,1.1c0.6,0.6,1.2,1.2,1.8,1.8c0.2,0.2,0.4,0.5,0.7,0.7
			c-0.9,0.5-1.7,1.1-2.6,1.6c-0.1,0.1-0.3,0.2-0.4,0.3c-0.9,0.6-1.7,1.1-2.5,1.7c-0.3,0.2-0.6,0.4-0.9,0.6c-0.7,0.5-1.5,1.1-2.2,1.6
			c-0.2,0.2-0.5,0.3-0.7,0.5c-0.9,0.7-1.8,1.4-2.8,2.2c-0.2,0.2-0.4,0.3-0.6,0.5c-0.7,0.6-1.4,1.2-2.1,1.8c-0.3,0.2-0.5,0.5-0.8,0.7
			c-0.7,0.6-1.4,1.3-2.1,1.9c-0.2,0.2-0.4,0.3-0.5,0.5c-0.8,0.8-1.7,1.6-2.5,2.4c-0.2,0.2-0.4,0.4-0.6,0.6c-0.6,0.6-1.3,1.3-1.9,2
			c-0.2,0.3-0.5,0.5-0.7,0.8c-0.7,0.8-1.4,1.5-2,2.3c-0.1,0.1-0.2,0.2-0.3,0.4c-0.8,0.9-1.5,1.8-2.3,2.7c-0.2,0.3-0.4,0.5-0.6,0.8
			c-0.6,0.7-1.1,1.4-1.6,2.1c-0.2,0.3-0.4,0.6-0.6,0.8c-0.7,1-1.4,1.9-2.1,2.9C96.3,237,95.6,238.1,94.9,239.1z M98.1,321.9v-13.8
			v-11.3c0-1.1,0-2.2,0.1-3.3c0-0.4,0-0.7,0.1-1.1c0-0.7,0.1-1.5,0.1-2.2c0-0.4,0.1-0.9,0.1-1.3c0.1-0.6,0.1-1.3,0.2-1.9
			c0.1-0.5,0.1-0.9,0.2-1.4c0.1-0.6,0.2-1.2,0.2-1.8c0.1-0.5,0.2-1,0.2-1.4c0.1-0.6,0.2-1.2,0.3-1.8c0.1-0.5,0.2-1,0.3-1.5
			c0.1-0.6,0.2-1.1,0.4-1.7c0.1-0.5,0.2-1,0.4-1.5c0.1-0.5,0.3-1.1,0.4-1.6c0.1-0.5,0.3-1,0.4-1.5c0.2-0.5,0.3-1.1,0.5-1.6
			c0.2-0.5,0.3-1,0.5-1.5c0.2-0.5,0.3-1,0.5-1.6c0.2-0.5,0.4-1,0.5-1.5c0.2-0.5,0.4-1,0.6-1.5c0.2-0.5,0.4-1,0.6-1.4
			c0.2-0.5,0.4-1,0.6-1.5c0.2-0.5,0.4-1,0.6-1.4c0.2-0.5,0.4-1,0.7-1.5c0.2-0.5,0.5-0.9,0.7-1.4c0.2-0.5,0.5-1,0.7-1.4
			c0.2-0.5,0.5-0.9,0.7-1.4c0.3-0.5,0.5-0.9,0.8-1.4c0.3-0.5,0.5-0.9,0.8-1.4c0.3-0.5,0.5-0.9,0.8-1.4c0.3-0.5,0.6-0.9,0.8-1.3
			c0.3-0.4,0.6-0.9,0.9-1.3s0.6-0.9,0.9-1.3c0.3-0.4,0.6-0.9,0.9-1.3c0.3-0.4,0.6-0.9,0.9-1.3c0.3-0.4,0.6-0.8,1-1.3
			c0.3-0.4,0.7-0.8,1-1.3c0.3-0.4,0.7-0.8,1-1.2c0.3-0.4,0.7-0.8,1-1.2c0.3-0.4,0.7-0.8,1.1-1.2s0.7-0.8,1.1-1.2
			c0.4-0.4,0.7-0.8,1.1-1.2c0.4-0.4,0.7-0.8,1.1-1.1c0.4-0.4,0.8-0.8,1.1-1.1c0.4-0.4,0.8-0.7,1.2-1.1c0.4-0.4,0.8-0.7,1.2-1.1
			c0.4-0.4,0.8-0.7,1.2-1.1c0.4-0.4,0.8-0.7,1.2-1c0.4-0.3,0.8-0.7,1.2-1c0.4-0.3,0.8-0.7,1.3-1c0.4-0.3,0.9-0.6,1.3-1
			c0.4-0.3,0.9-0.6,1.3-1c0.4-0.3,0.9-0.6,1.3-0.9c0.5-0.3,0.9-0.6,1.4-0.9c0.4-0.3,0.9-0.6,1.3-0.9c0.5-0.3,0.9-0.6,1.4-0.9
			c0.5-0.3,0.9-0.6,1.4-0.8c0.5-0.3,1-0.6,1.5-0.8c0.5-0.3,0.9-0.5,1.4-0.8c0.5-0.3,1-0.5,1.5-0.8c0.5-0.2,1-0.5,1.4-0.7
			c0.4-0.2,0.8-0.4,1.1-0.5c11.2,5.9,24,9.3,37.6,9.3c13.6,0,26.3-3.4,37.6-9.3c0.4,0.2,0.8,0.4,1.1,0.5c0.5,0.2,1,0.5,1.5,0.7
			c0.5,0.3,1,0.5,1.5,0.8c0.5,0.3,1,0.5,1.4,0.8c0.5,0.3,1,0.5,1.4,0.8c0.5,0.3,0.9,0.6,1.4,0.8c0.5,0.3,0.9,0.6,1.4,0.9
			c0.5,0.3,0.9,0.6,1.4,0.9c0.5,0.3,0.9,0.6,1.3,0.9c0.4,0.3,0.9,0.6,1.3,0.9s0.9,0.6,1.3,1c0.4,0.3,0.9,0.6,1.3,1
			c0.4,0.3,0.8,0.7,1.3,1c0.4,0.3,0.8,0.7,1.3,1c0.4,0.3,0.8,0.7,1.2,1c0.4,0.4,0.8,0.7,1.2,1.1c0.4,0.4,0.8,0.7,1.2,1.1
			c0.4,0.4,0.8,0.7,1.2,1.1c0.4,0.4,0.8,0.7,1.1,1.1c0.4,0.4,0.8,0.8,1.1,1.1c0.4,0.4,0.7,0.8,1.1,1.1c0.4,0.4,0.7,0.8,1.1,1.2
			c0.4,0.4,0.7,0.8,1,1.2c0.4,0.4,0.7,0.8,1,1.2c0.3,0.4,0.7,0.8,1,1.2c0.3,0.4,0.7,0.8,1,1.3c0.3,0.4,0.6,0.8,0.9,1.3
			c0.3,0.4,0.6,0.9,1,1.3c0.3,0.4,0.6,0.9,0.9,1.3c0.3,0.4,0.6,0.9,0.9,1.3c0.3,0.4,0.6,0.9,0.9,1.3c0.3,0.4,0.6,0.9,0.9,1.4
			c0.3,0.4,0.5,0.9,0.8,1.4c0.3,0.5,0.5,0.9,0.8,1.4c0.3,0.5,0.5,0.9,0.8,1.4c0.3,0.5,0.5,0.9,0.7,1.4c0.2,0.5,0.5,1,0.7,1.4
			c0.2,0.5,0.5,0.9,0.7,1.4c0.2,0.5,0.4,1,0.7,1.5c0.2,0.5,0.4,1,0.6,1.4c0.2,0.5,0.4,1,0.6,1.5c0.2,0.5,0.4,1,0.6,1.5
			c0.2,0.5,0.4,1,0.6,1.5c0.2,0.5,0.4,1,0.5,1.5c0.2,0.5,0.3,1,0.5,1.6c0.2,0.5,0.3,1,0.5,1.5c0.2,0.5,0.3,1.1,0.5,1.6
			c0.1,0.5,0.3,1,0.4,1.5c0.1,0.5,0.3,1.1,0.4,1.6c0.1,0.5,0.2,1,0.4,1.5c0.1,0.6,0.2,1.1,0.4,1.7c0.1,0.5,0.2,1,0.3,1.5
			c0.1,0.6,0.2,1.2,0.3,1.7c0.1,0.5,0.2,1,0.2,1.5c0.1,0.6,0.2,1.2,0.2,1.8c0.1,0.5,0.1,0.9,0.2,1.4c0.1,0.6,0.1,1.3,0.2,1.9
			c0,0.4,0.1,0.9,0.1,1.3c0.1,0.7,0.1,1.5,0.1,2.2c0,0.4,0,0.7,0.1,1.1c0,1.1,0.1,2.2,0.1,3.3v11.3v13.8L98.1,321.9L98.1,321.9z
			 M294,288.1c-0.2-2.4-0.5-4.9-0.8-7.3c-0.1-0.4-0.1-0.8-0.2-1.1c-0.1-0.9-0.3-1.7-0.4-2.6c-0.1-0.5-0.2-0.9-0.3-1.4
			c-0.2-0.8-0.3-1.6-0.5-2.4c-0.1-0.5-0.2-0.9-0.3-1.4c-0.2-0.8-0.4-1.5-0.6-2.3c-0.1-0.5-0.2-0.9-0.4-1.4c-0.2-0.8-0.5-1.6-0.7-2.4
			c-0.1-0.4-0.2-0.8-0.4-1.3c-0.3-0.9-0.6-1.9-0.9-2.8c-0.1-0.3-0.2-0.5-0.3-0.8c-0.4-1.2-0.9-2.4-1.3-3.6c-0.1-0.3-0.2-0.5-0.3-0.8
			c-0.4-0.9-0.7-1.8-1.1-2.7c-0.2-0.4-0.4-0.8-0.5-1.2c-0.3-0.8-0.7-1.5-1-2.3c-0.2-0.4-0.4-0.9-0.6-1.3c-0.4-0.7-0.7-1.4-1.1-2.1
			c-0.2-0.4-0.5-0.9-0.7-1.3c-0.4-0.7-0.8-1.4-1.2-2.1c-0.2-0.4-0.5-0.8-0.7-1.3c-0.4-0.8-0.9-1.5-1.4-2.2c-0.2-0.3-0.4-0.7-0.6-1
			c-0.7-1.1-1.4-2.1-2.1-3.2c-0.7-1-1.4-2-2.1-2.9c-0.2-0.3-0.4-0.6-0.6-0.8c-0.5-0.7-1.1-1.4-1.6-2.1c-0.2-0.3-0.4-0.5-0.6-0.8
			c-0.7-0.9-1.5-1.8-2.3-2.7c-0.1-0.1-0.2-0.2-0.3-0.3c-0.7-0.8-1.4-1.6-2.1-2.3c-0.2-0.3-0.5-0.5-0.7-0.8c-0.6-0.7-1.2-1.3-1.9-2
			c-0.2-0.2-0.4-0.4-0.6-0.6c-0.8-0.8-1.7-1.6-2.5-2.4c-0.2-0.2-0.4-0.3-0.5-0.5c-0.7-0.6-1.4-1.3-2.1-1.9c-0.3-0.2-0.5-0.5-0.8-0.7
			c-0.7-0.6-1.4-1.2-2.1-1.8c-0.2-0.2-0.4-0.3-0.6-0.5c-0.9-0.7-1.8-1.4-2.8-2.1c-0.2-0.2-0.5-0.3-0.7-0.5c-0.7-0.5-1.5-1.1-2.2-1.6
			c-0.3-0.2-0.6-0.4-0.9-0.6c-0.8-0.6-1.7-1.1-2.5-1.7c-0.1-0.1-0.3-0.2-0.4-0.3c-0.9-0.5-1.7-1.1-2.6-1.6c0.2-0.2,0.4-0.4,0.7-0.7
			c0.6-0.6,1.2-1.2,1.8-1.8c0.3-0.3,0.7-0.7,1-1c0.7-0.7,1.3-1.4,1.9-2.1c0.3-0.3,0.5-0.6,0.8-0.9c0.7-0.8,1.3-1.6,2-2.4
			c0.2-0.3,0.4-0.5,0.6-0.8c0.6-0.8,1.3-1.7,1.9-2.6c3.9,0.6,7.8,0.9,11.8,0.9c13.6,0,26.3-3.4,37.6-9.3
			c30.9,14.6,50.5,45.4,50.5,79.6v25.1H294z"/>
	</g>
</g>
</svg>
