<?xml version="1.0" standalone="no"?>
<!DOCTYPE svg PUBLIC "-//W3C//DTD SVG 20010904//EN"
 "http://www.w3.org/TR/2001/REC-SVG-20010904/DTD/svg10.dtd">
<svg version="1.0" xmlns="http://www.w3.org/2000/svg"
 viewBox="0 0 256.000000 256.000000"
 preserveAspectRatio="xMidYMid meet">

<g transform="translate(0.000000,256.000000) scale(0.100000,-0.100000)"
fill="#000000" stroke="none">
<path d="M2405 2543 c-526 -120 -993 -347 -1297 -632 l-66 -61 -68 0 c-287 0
-637 -156 -898 -401 -59 -55 -66 -65 -66 -100 0 -46 -6 -42 260 -189 102 -56
186 -104 188 -105 2 -2 -8 -26 -23 -54 -16 -32 -23 -60 -20 -74 8 -29 482
-503 512 -512 14 -4 40 3 73 20 29 15 53 25 55 23 1 -2 48 -86 105 -188 148
-267 143 -260 189 -260 35 0 45 7 98 64 247 263 403 612 403 902 0 67 1 71 36
105 94 90 251 310 352 494 140 253 289 674 309 873 8 81 -8 103 -76 101 -25
-1 -55 -3 -66 -6z m-15 -157 c0 -23 -117 -396 -124 -396 -1 0 -64 62 -140 139
l-138 139 123 40 c176 59 279 87 279 78z m-366 -365 l179 -179 -17 -44 c-55
-138 -221 -400 -355 -560 -174 -207 -424 -404 -755 -593 l-118 -68 -190 191
-191 190 68 118 c253 444 492 709 842 938 98 64 326 186 348 186 6 0 91 -81
189 -179z m-1134 -326 c0 -2 -32 -44 -71 -92 -67 -84 -189 -262 -254 -371
l-30 -51 -160 88 c-87 49 -161 93 -162 98 -4 12 86 84 185 148 129 83 287 147
427 173 66 13 65 13 65 7z m804 -837 c-25 -142 -82 -298 -154 -419 -56 -94
-160 -231 -172 -227 -6 2 -50 76 -99 163 l-89 160 51 30 c110 65 288 187 369
254 47 38 88 70 92 70 4 1 5 -14 2 -31z"/>
<path d="M1667 1989 c-138 -33 -227 -153 -214 -289 15 -172 182 -285 349 -236
231 67 261 397 45 500 -61 29 -127 38 -180 25z m120 -159 c74 -45 83 -139 19
-197 -83 -76 -206 -19 -206 94 0 45 20 77 64 104 40 24 83 24 123 -1z"/>
<path d="M183 618 c-160 -159 -176 -184 -137 -222 37 -38 62 -23 216 132 128
128 148 152 148 179 0 33 -29 63 -59 63 -8 0 -83 -68 -168 -152z"/>
<path d="M213 297 c-161 -160 -172 -178 -133 -217 39 -39 57 -28 217 133 161
160 172 178 133 217 -39 39 -57 28 -217 -133z"/>
<path d="M527 262 c-153 -155 -168 -179 -131 -216 38 -39 63 -23 222 137 84
85 152 160 152 168 0 31 -30 59 -63 59 -29 0 -51 -18 -180 -148z"/>
</g>
</svg>
